<?xml version="1.0" encoding="utf-8" standalone="no"?>
<!DOCTYPE svg PUBLIC "-//W3C//DTD SVG 1.1//EN"
  "http://www.w3.org/Graphics/SVG/1.1/DTD/svg11.dtd">
<svg xmlns:xlink="http://www.w3.org/1999/xlink" width="864pt" height="288pt" viewBox="0 0 864 288" xmlns="http://www.w3.org/2000/svg" version="1.1">
 <metadata>
  <rdf:RDF xmlns:dc="http://purl.org/dc/elements/1.1/" xmlns:cc="http://creativecommons.org/ns#" xmlns:rdf="http://www.w3.org/1999/02/22-rdf-syntax-ns#">
   <cc:Work>
    <dc:type rdf:resource="http://purl.org/dc/dcmitype/StillImage"/>
    <dc:date>2024-04-25T12:33:27.526439</dc:date>
    <dc:format>image/svg+xml</dc:format>
    <dc:creator>
     <cc:Agent>
      <dc:title>Matplotlib v3.8.4, https://matplotlib.org/</dc:title>
     </cc:Agent>
    </dc:creator>
   </cc:Work>
  </rdf:RDF>
 </metadata>
 <defs>
  <style type="text/css">*{stroke-linejoin: round; stroke-linecap: butt}</style>
 </defs>
 <g id="figure_1">
  <g id="patch_1">
   <path d="M 0 288 
L 864 288 
L 864 0 
L 0 0 
z
" style="fill: #ffffff"/>
  </g>
  <g id="axes_1">
   <g id="patch_2">
    <path d="M 167.312298 245.697594 
C 148.570912 242.141416 131.647285 232.149505 119.480753 217.457281 
C 107.31422 202.765057 100.652437 184.275383 100.652437 165.199588 
C 100.652437 146.123793 107.31422 127.634119 119.480753 112.941895 
C 131.647285 98.249671 148.570912 88.25776 167.312298 84.701582 
C 153.24678 76.755267 137.34116 72.63254 121.186598 72.745828 
C 105.032035 72.859115 89.1858 77.204509 75.233111 85.347308 
C 61.280421 93.490106 49.70259 105.149414 41.657836 119.158862 
C 33.613082 133.168311 29.378917 149.044628 29.378917 165.199588 
C 29.378917 181.354548 33.613082 197.230865 41.657836 211.240314 
C 49.70259 225.249762 61.280421 236.90907 75.233111 245.051868 
C 89.1858 253.194666 105.032035 257.540061 121.186598 257.653348 
C 137.34116 257.766636 153.24678 253.643908 167.312298 245.697594 
" clip-path="url(#pe76daa92c9)" style="fill: #ab43d8"/>
   </g>
   <g id="patch_3">
    <path d="M 167.312298 84.701582 
C 181.569188 92.756012 193.433644 104.455222 201.687231 118.597748 
C 209.940818 132.740274 214.290984 148.824829 214.290984 165.199588 
C 214.290984 181.574347 209.940818 197.658902 201.687231 211.801428 
C 193.433644 225.943954 181.569188 237.643164 167.312298 245.697594 
C 179.154659 247.944682 191.348278 247.55107 203.021063 244.544909 
C 214.693849 241.538748 225.560725 235.993456 234.84449 228.305632 
C 244.128255 220.617808 251.602178 210.975208 256.731722 200.067472 
C 261.861266 189.159736 264.521156 177.253257 264.521156 165.199588 
C 264.521156 153.145919 261.861266 141.23944 256.731722 130.331704 
C 251.602178 119.423968 244.128255 109.781368 234.84449 102.093544 
C 225.560725 94.40572 214.693849 88.860428 203.021063 85.854267 
C 191.348278 82.848105 179.154659 82.454494 167.312298 84.701582 
" clip-path="url(#pe76daa92c9)" style="fill: #4444f7"/>
   </g>
   <g id="patch_4">
    <path d="M 167.312298 245.697594 
C 181.569188 237.643164 193.433644 225.943954 201.687231 211.801428 
C 209.940818 197.658902 214.290984 181.574347 214.290984 165.199588 
C 214.290984 148.824829 209.940818 132.740274 201.687231 118.597748 
C 193.433644 104.455222 181.569188 92.756012 167.312298 84.701582 
C 148.570912 88.25776 131.647285 98.249671 119.480753 112.941895 
C 107.31422 127.634119 100.652437 146.123793 100.652437 165.199588 
C 100.652437 184.275383 107.31422 202.765057 119.480753 217.457281 
C 131.647285 232.149505 148.570912 242.141416 167.312298 245.697594 
" clip-path="url(#pe76daa92c9)" style="fill: #8d43f6; stroke: #8d43f6; stroke-linejoin: miter"/>
   </g>
   <g id="text_1">
    <!-- 38.9% -->
    <g transform="translate(49.132083 167.958963) scale(0.1 -0.1)">
     <defs>
      <path id="DejaVuSans-33" d="M 2597 2516 
Q 3050 2419 3304 2112 
Q 3559 1806 3559 1356 
Q 3559 666 3084 287 
Q 2609 -91 1734 -91 
Q 1441 -91 1130 -33 
Q 819 25 488 141 
L 488 750 
Q 750 597 1062 519 
Q 1375 441 1716 441 
Q 2309 441 2620 675 
Q 2931 909 2931 1356 
Q 2931 1769 2642 2001 
Q 2353 2234 1838 2234 
L 1294 2234 
L 1294 2753 
L 1863 2753 
Q 2328 2753 2575 2939 
Q 2822 3125 2822 3475 
Q 2822 3834 2567 4026 
Q 2313 4219 1838 4219 
Q 1578 4219 1281 4162 
Q 984 4106 628 3988 
L 628 4550 
Q 988 4650 1302 4700 
Q 1616 4750 1894 4750 
Q 2613 4750 3031 4423 
Q 3450 4097 3450 3541 
Q 3450 3153 3228 2886 
Q 3006 2619 2597 2516 
z
" transform="scale(0.015625)"/>
      <path id="DejaVuSans-38" d="M 2034 2216 
Q 1584 2216 1326 1975 
Q 1069 1734 1069 1313 
Q 1069 891 1326 650 
Q 1584 409 2034 409 
Q 2484 409 2743 651 
Q 3003 894 3003 1313 
Q 3003 1734 2745 1975 
Q 2488 2216 2034 2216 
z
M 1403 2484 
Q 997 2584 770 2862 
Q 544 3141 544 3541 
Q 544 4100 942 4425 
Q 1341 4750 2034 4750 
Q 2731 4750 3128 4425 
Q 3525 4100 3525 3541 
Q 3525 3141 3298 2862 
Q 3072 2584 2669 2484 
Q 3125 2378 3379 2068 
Q 3634 1759 3634 1313 
Q 3634 634 3220 271 
Q 2806 -91 2034 -91 
Q 1263 -91 848 271 
Q 434 634 434 1313 
Q 434 1759 690 2068 
Q 947 2378 1403 2484 
z
M 1172 3481 
Q 1172 3119 1398 2916 
Q 1625 2713 2034 2713 
Q 2441 2713 2670 2916 
Q 2900 3119 2900 3481 
Q 2900 3844 2670 4047 
Q 2441 4250 2034 4250 
Q 1625 4250 1398 4047 
Q 1172 3844 1172 3481 
z
" transform="scale(0.015625)"/>
      <path id="DejaVuSans-2e" d="M 684 794 
L 1344 794 
L 1344 0 
L 684 0 
L 684 794 
z
" transform="scale(0.015625)"/>
      <path id="DejaVuSans-39" d="M 703 97 
L 703 672 
Q 941 559 1184 500 
Q 1428 441 1663 441 
Q 2288 441 2617 861 
Q 2947 1281 2994 2138 
Q 2813 1869 2534 1725 
Q 2256 1581 1919 1581 
Q 1219 1581 811 2004 
Q 403 2428 403 3163 
Q 403 3881 828 4315 
Q 1253 4750 1959 4750 
Q 2769 4750 3195 4129 
Q 3622 3509 3622 2328 
Q 3622 1225 3098 567 
Q 2575 -91 1691 -91 
Q 1453 -91 1209 -44 
Q 966 3 703 97 
z
M 1959 2075 
Q 2384 2075 2632 2365 
Q 2881 2656 2881 3163 
Q 2881 3666 2632 3958 
Q 2384 4250 1959 4250 
Q 1534 4250 1286 3958 
Q 1038 3666 1038 3163 
Q 1038 2656 1286 2365 
Q 1534 2075 1959 2075 
z
" transform="scale(0.015625)"/>
      <path id="DejaVuSans-25" d="M 4653 2053 
Q 4381 2053 4226 1822 
Q 4072 1591 4072 1178 
Q 4072 772 4226 539 
Q 4381 306 4653 306 
Q 4919 306 5073 539 
Q 5228 772 5228 1178 
Q 5228 1588 5073 1820 
Q 4919 2053 4653 2053 
z
M 4653 2450 
Q 5147 2450 5437 2106 
Q 5728 1763 5728 1178 
Q 5728 594 5436 251 
Q 5144 -91 4653 -91 
Q 4153 -91 3862 251 
Q 3572 594 3572 1178 
Q 3572 1766 3864 2108 
Q 4156 2450 4653 2450 
z
M 1428 4353 
Q 1159 4353 1004 4120 
Q 850 3888 850 3481 
Q 850 3069 1003 2837 
Q 1156 2606 1428 2606 
Q 1700 2606 1854 2837 
Q 2009 3069 2009 3481 
Q 2009 3884 1853 4118 
Q 1697 4353 1428 4353 
z
M 4250 4750 
L 4750 4750 
L 1831 -91 
L 1331 -91 
L 4250 4750 
z
M 1428 4750 
Q 1922 4750 2215 4408 
Q 2509 4066 2509 3481 
Q 2509 2891 2217 2550 
Q 1925 2209 1428 2209 
Q 931 2209 642 2551 
Q 353 2894 353 3481 
Q 353 4063 643 4406 
Q 934 4750 1428 4750 
z
" transform="scale(0.015625)"/>
     </defs>
     <use xlink:href="#DejaVuSans-33"/>
     <use xlink:href="#DejaVuSans-38" x="63.623047"/>
     <use xlink:href="#DejaVuSans-2e" x="127.246094"/>
     <use xlink:href="#DejaVuSans-39" x="159.033203"/>
     <use xlink:href="#DejaVuSans-25" x="222.65625"/>
    </g>
   </g>
   <g id="text_2">
    <!-- 22.2% -->
    <g transform="translate(223.522476 167.958963) scale(0.1 -0.1)">
     <defs>
      <path id="DejaVuSans-32" d="M 1228 531 
L 3431 531 
L 3431 0 
L 469 0 
L 469 531 
Q 828 903 1448 1529 
Q 2069 2156 2228 2338 
Q 2531 2678 2651 2914 
Q 2772 3150 2772 3378 
Q 2772 3750 2511 3984 
Q 2250 4219 1831 4219 
Q 1534 4219 1204 4116 
Q 875 4013 500 3803 
L 500 4441 
Q 881 4594 1212 4672 
Q 1544 4750 1819 4750 
Q 2544 4750 2975 4387 
Q 3406 4025 3406 3419 
Q 3406 3131 3298 2873 
Q 3191 2616 2906 2266 
Q 2828 2175 2409 1742 
Q 1991 1309 1228 531 
z
" transform="scale(0.015625)"/>
     </defs>
     <use xlink:href="#DejaVuSans-32"/>
     <use xlink:href="#DejaVuSans-32" x="63.623047"/>
     <use xlink:href="#DejaVuSans-2e" x="127.246094"/>
     <use xlink:href="#DejaVuSans-32" x="159.033203"/>
     <use xlink:href="#DejaVuSans-25" x="222.65625"/>
    </g>
   </g>
   <g id="text_3">
    <!-- 38.9% -->
    <g transform="translate(141.588117 167.958963) scale(0.1 -0.1)">
     <use xlink:href="#DejaVuSans-33"/>
     <use xlink:href="#DejaVuSans-38" x="63.623047"/>
     <use xlink:href="#DejaVuSans-2e" x="127.246094"/>
     <use xlink:href="#DejaVuSans-39" x="159.033203"/>
     <use xlink:href="#DejaVuSans-25" x="222.65625"/>
    </g>
   </g>
   <g id="text_4">
    <!-- Databases -->
    <g transform="translate(58.32495 275.493266) scale(0.12 -0.12)">
     <defs>
      <path id="DejaVuSans-44" d="M 1259 4147 
L 1259 519 
L 2022 519 
Q 2988 519 3436 956 
Q 3884 1394 3884 2338 
Q 3884 3275 3436 3711 
Q 2988 4147 2022 4147 
L 1259 4147 
z
M 628 4666 
L 1925 4666 
Q 3281 4666 3915 4102 
Q 4550 3538 4550 2338 
Q 4550 1131 3912 565 
Q 3275 0 1925 0 
L 628 0 
L 628 4666 
z
" transform="scale(0.015625)"/>
      <path id="DejaVuSans-61" d="M 2194 1759 
Q 1497 1759 1228 1600 
Q 959 1441 959 1056 
Q 959 750 1161 570 
Q 1363 391 1709 391 
Q 2188 391 2477 730 
Q 2766 1069 2766 1631 
L 2766 1759 
L 2194 1759 
z
M 3341 1997 
L 3341 0 
L 2766 0 
L 2766 531 
Q 2569 213 2275 61 
Q 1981 -91 1556 -91 
Q 1019 -91 701 211 
Q 384 513 384 1019 
Q 384 1609 779 1909 
Q 1175 2209 1959 2209 
L 2766 2209 
L 2766 2266 
Q 2766 2663 2505 2880 
Q 2244 3097 1772 3097 
Q 1472 3097 1187 3025 
Q 903 2953 641 2809 
L 641 3341 
Q 956 3463 1253 3523 
Q 1550 3584 1831 3584 
Q 2591 3584 2966 3190 
Q 3341 2797 3341 1997 
z
" transform="scale(0.015625)"/>
      <path id="DejaVuSans-74" d="M 1172 4494 
L 1172 3500 
L 2356 3500 
L 2356 3053 
L 1172 3053 
L 1172 1153 
Q 1172 725 1289 603 
Q 1406 481 1766 481 
L 2356 481 
L 2356 0 
L 1766 0 
Q 1100 0 847 248 
Q 594 497 594 1153 
L 594 3053 
L 172 3053 
L 172 3500 
L 594 3500 
L 594 4494 
L 1172 4494 
z
" transform="scale(0.015625)"/>
      <path id="DejaVuSans-62" d="M 3116 1747 
Q 3116 2381 2855 2742 
Q 2594 3103 2138 3103 
Q 1681 3103 1420 2742 
Q 1159 2381 1159 1747 
Q 1159 1113 1420 752 
Q 1681 391 2138 391 
Q 2594 391 2855 752 
Q 3116 1113 3116 1747 
z
M 1159 2969 
Q 1341 3281 1617 3432 
Q 1894 3584 2278 3584 
Q 2916 3584 3314 3078 
Q 3713 2572 3713 1747 
Q 3713 922 3314 415 
Q 2916 -91 2278 -91 
Q 1894 -91 1617 61 
Q 1341 213 1159 525 
L 1159 0 
L 581 0 
L 581 4863 
L 1159 4863 
L 1159 2969 
z
" transform="scale(0.015625)"/>
      <path id="DejaVuSans-73" d="M 2834 3397 
L 2834 2853 
Q 2591 2978 2328 3040 
Q 2066 3103 1784 3103 
Q 1356 3103 1142 2972 
Q 928 2841 928 2578 
Q 928 2378 1081 2264 
Q 1234 2150 1697 2047 
L 1894 2003 
Q 2506 1872 2764 1633 
Q 3022 1394 3022 966 
Q 3022 478 2636 193 
Q 2250 -91 1575 -91 
Q 1294 -91 989 -36 
Q 684 19 347 128 
L 347 722 
Q 666 556 975 473 
Q 1284 391 1588 391 
Q 1994 391 2212 530 
Q 2431 669 2431 922 
Q 2431 1156 2273 1281 
Q 2116 1406 1581 1522 
L 1381 1569 
Q 847 1681 609 1914 
Q 372 2147 372 2553 
Q 372 3047 722 3315 
Q 1072 3584 1716 3584 
Q 2034 3584 2315 3537 
Q 2597 3491 2834 3397 
z
" transform="scale(0.015625)"/>
      <path id="DejaVuSans-65" d="M 3597 1894 
L 3597 1613 
L 953 1613 
Q 991 1019 1311 708 
Q 1631 397 2203 397 
Q 2534 397 2845 478 
Q 3156 559 3463 722 
L 3463 178 
Q 3153 47 2828 -22 
Q 2503 -91 2169 -91 
Q 1331 -91 842 396 
Q 353 884 353 1716 
Q 353 2575 817 3079 
Q 1281 3584 2069 3584 
Q 2775 3584 3186 3129 
Q 3597 2675 3597 1894 
z
M 3022 2063 
Q 3016 2534 2758 2815 
Q 2500 3097 2075 3097 
Q 1594 3097 1305 2825 
Q 1016 2553 972 2059 
L 3022 2063 
z
" transform="scale(0.015625)"/>
     </defs>
     <use xlink:href="#DejaVuSans-44"/>
     <use xlink:href="#DejaVuSans-61" x="77.001953"/>
     <use xlink:href="#DejaVuSans-74" x="138.28125"/>
     <use xlink:href="#DejaVuSans-61" x="177.490234"/>
     <use xlink:href="#DejaVuSans-62" x="238.769531"/>
     <use xlink:href="#DejaVuSans-61" x="302.246094"/>
     <use xlink:href="#DejaVuSans-73" x="363.525391"/>
     <use xlink:href="#DejaVuSans-65" x="415.625"/>
     <use xlink:href="#DejaVuSans-73" x="477.148438"/>
    </g>
   </g>
   <g id="text_5">
    <!-- File systems -->
    <g transform="translate(182.586797 264.971592) scale(0.12 -0.12)">
     <defs>
      <path id="DejaVuSans-46" d="M 628 4666 
L 3309 4666 
L 3309 4134 
L 1259 4134 
L 1259 2759 
L 3109 2759 
L 3109 2228 
L 1259 2228 
L 1259 0 
L 628 0 
L 628 4666 
z
" transform="scale(0.015625)"/>
      <path id="DejaVuSans-69" d="M 603 3500 
L 1178 3500 
L 1178 0 
L 603 0 
L 603 3500 
z
M 603 4863 
L 1178 4863 
L 1178 4134 
L 603 4134 
L 603 4863 
z
" transform="scale(0.015625)"/>
      <path id="DejaVuSans-6c" d="M 603 4863 
L 1178 4863 
L 1178 0 
L 603 0 
L 603 4863 
z
" transform="scale(0.015625)"/>
      <path id="DejaVuSans-20" transform="scale(0.015625)"/>
      <path id="DejaVuSans-79" d="M 2059 -325 
Q 1816 -950 1584 -1140 
Q 1353 -1331 966 -1331 
L 506 -1331 
L 506 -850 
L 844 -850 
Q 1081 -850 1212 -737 
Q 1344 -625 1503 -206 
L 1606 56 
L 191 3500 
L 800 3500 
L 1894 763 
L 2988 3500 
L 3597 3500 
L 2059 -325 
z
" transform="scale(0.015625)"/>
      <path id="DejaVuSans-6d" d="M 3328 2828 
Q 3544 3216 3844 3400 
Q 4144 3584 4550 3584 
Q 5097 3584 5394 3201 
Q 5691 2819 5691 2113 
L 5691 0 
L 5113 0 
L 5113 2094 
Q 5113 2597 4934 2840 
Q 4756 3084 4391 3084 
Q 3944 3084 3684 2787 
Q 3425 2491 3425 1978 
L 3425 0 
L 2847 0 
L 2847 2094 
Q 2847 2600 2669 2842 
Q 2491 3084 2119 3084 
Q 1678 3084 1418 2786 
Q 1159 2488 1159 1978 
L 1159 0 
L 581 0 
L 581 3500 
L 1159 3500 
L 1159 2956 
Q 1356 3278 1631 3431 
Q 1906 3584 2284 3584 
Q 2666 3584 2933 3390 
Q 3200 3197 3328 2828 
z
" transform="scale(0.015625)"/>
     </defs>
     <use xlink:href="#DejaVuSans-46"/>
     <use xlink:href="#DejaVuSans-69" x="50.269531"/>
     <use xlink:href="#DejaVuSans-6c" x="78.052734"/>
     <use xlink:href="#DejaVuSans-65" x="105.835938"/>
     <use xlink:href="#DejaVuSans-20" x="167.359375"/>
     <use xlink:href="#DejaVuSans-73" x="199.146484"/>
     <use xlink:href="#DejaVuSans-79" x="251.246094"/>
     <use xlink:href="#DejaVuSans-73" x="310.425781"/>
     <use xlink:href="#DejaVuSans-74" x="362.525391"/>
     <use xlink:href="#DejaVuSans-65" x="401.734375"/>
     <use xlink:href="#DejaVuSans-6d" x="463.257812"/>
     <use xlink:href="#DejaVuSans-73" x="560.669922"/>
    </g>
   </g>
   <g id="text_6">
    <!-- All -->
    <g transform="translate(139.511912 48.164637) scale(0.12 -0.12)">
     <defs>
      <path id="DejaVuSans-41" d="M 2188 4044 
L 1331 1722 
L 3047 1722 
L 2188 4044 
z
M 1831 4666 
L 2547 4666 
L 4325 0 
L 3669 0 
L 3244 1197 
L 1141 1197 
L 716 0 
L 50 0 
L 1831 4666 
z
" transform="scale(0.015625)"/>
     </defs>
     <use xlink:href="#DejaVuSans-41"/>
     <use xlink:href="#DejaVuSans-6c" x="68.408203"/>
     <use xlink:href="#DejaVuSans-6c" x="96.191406"/>
    </g>
   </g>
  </g>
  <g id="axes_2">
   <g id="patch_5">
    <path d="M 421.691594 231.210145 
C 411.222679 223.678737 402.694067 213.763794 396.812259 202.286658 
C 390.930451 190.809522 387.862473 178.096111 387.862473 165.199588 
C 387.862473 152.303065 390.930451 139.589654 396.812259 128.112518 
C 402.694067 116.635382 411.222679 106.720439 421.691594 99.189031 
C 410.376323 93.368298 397.7522 90.553601 385.035979 91.01623 
C 372.319758 91.478859 359.933542 95.203457 349.071152 101.831036 
C 338.208763 108.458616 329.230768 117.769179 323.002494 128.865345 
C 316.77422 139.961512 313.50241 152.474954 313.50241 165.199588 
C 313.50241 177.924222 316.77422 190.437664 323.002494 201.533831 
C 329.230768 212.629997 338.208763 221.94056 349.071152 228.568139 
C 359.933542 235.195719 372.319758 238.920317 385.035979 239.382946 
C 397.7522 239.845575 410.376323 237.030878 421.691594 231.210145 
" clip-path="url(#pc4e7a62b2d)" style="fill: #ab43d8"/>
   </g>
   <g id="patch_6">
    <path d="M 421.691594 99.189031 
C 433.820907 105.428519 443.999017 114.892046 451.103396 126.535895 
C 458.207776 138.179745 461.96728 151.55952 461.96728 165.199588 
C 461.96728 178.839656 458.207776 192.219431 451.103396 203.86328 
C 443.999017 215.50713 433.820907 224.970657 421.691594 231.210145 
C 433.838054 239.948389 448.163922 245.166843 463.084898 246.288395 
C 478.005873 247.409948 492.950865 244.391672 506.267102 237.567361 
C 519.583339 230.74305 530.76115 220.373899 538.564379 207.606635 
C 546.367608 194.839372 550.49759 180.162656 550.49759 165.199588 
C 550.49759 150.23652 546.367608 135.559804 538.564379 122.792541 
C 530.76115 110.025277 519.583339 99.656126 506.267102 92.831815 
C 492.950865 86.007504 478.005873 82.989228 463.084898 84.110781 
C 448.163922 85.232333 433.838054 90.450787 421.691594 99.189031 
" clip-path="url(#pc4e7a62b2d)" style="fill: #4444f7"/>
   </g>
   <g id="patch_7">
    <path d="M 421.691594 231.210145 
C 433.820907 224.970657 443.999017 215.50713 451.103396 203.86328 
C 458.207776 192.219431 461.96728 178.839656 461.96728 165.199588 
C 461.96728 151.55952 458.207776 138.179745 451.103396 126.535895 
C 443.999017 114.892046 433.820907 105.428519 421.691594 99.189031 
C 411.222679 106.720439 402.694067 116.635382 396.812259 128.112518 
C 390.930451 139.589654 387.862473 152.303065 387.862473 165.199588 
C 387.862473 178.096111 390.930451 190.809522 396.812259 202.286658 
C 402.694067 213.763794 411.222679 223.678737 421.691594 231.210145 
" clip-path="url(#pc4e7a62b2d)" style="fill: #8d43f6; stroke: #8d43f6; stroke-linejoin: miter"/>
   </g>
   <g id="text_7">
    <!-- 33.3% -->
    <g transform="translate(334.798848 167.958963) scale(0.1 -0.1)">
     <use xlink:href="#DejaVuSans-33"/>
     <use xlink:href="#DejaVuSans-33" x="63.623047"/>
     <use xlink:href="#DejaVuSans-2e" x="127.246094"/>
     <use xlink:href="#DejaVuSans-33" x="159.033203"/>
     <use xlink:href="#DejaVuSans-25" x="222.65625"/>
    </g>
   </g>
   <g id="text_8">
    <!-- 44.4% -->
    <g transform="translate(490.348841 167.958963) scale(0.1 -0.1)">
     <defs>
      <path id="DejaVuSans-34" d="M 2419 4116 
L 825 1625 
L 2419 1625 
L 2419 4116 
z
M 2253 4666 
L 3047 4666 
L 3047 1625 
L 3713 1625 
L 3713 1100 
L 3047 1100 
L 3047 0 
L 2419 0 
L 2419 1100 
L 313 1100 
L 313 1709 
L 2253 4666 
z
" transform="scale(0.015625)"/>
     </defs>
     <use xlink:href="#DejaVuSans-34"/>
     <use xlink:href="#DejaVuSans-34" x="63.623047"/>
     <use xlink:href="#DejaVuSans-2e" x="127.246094"/>
     <use xlink:href="#DejaVuSans-34" x="159.033203"/>
     <use xlink:href="#DejaVuSans-25" x="222.65625"/>
    </g>
   </g>
   <g id="text_9">
    <!-- 22.2% -->
    <g transform="translate(409.031283 167.958963) scale(0.1 -0.1)">
     <use xlink:href="#DejaVuSans-32"/>
     <use xlink:href="#DejaVuSans-32" x="63.623047"/>
     <use xlink:href="#DejaVuSans-2e" x="127.246094"/>
     <use xlink:href="#DejaVuSans-32" x="159.033203"/>
     <use xlink:href="#DejaVuSans-25" x="222.65625"/>
    </g>
   </g>
   <g id="text_10">
    <!-- Databases -->
    <g transform="translate(324.224845 256.327648) scale(0.12 -0.12)">
     <use xlink:href="#DejaVuSans-44"/>
     <use xlink:href="#DejaVuSans-61" x="77.001953"/>
     <use xlink:href="#DejaVuSans-74" x="138.28125"/>
     <use xlink:href="#DejaVuSans-61" x="177.490234"/>
     <use xlink:href="#DejaVuSans-62" x="238.769531"/>
     <use xlink:href="#DejaVuSans-61" x="302.246094"/>
     <use xlink:href="#DejaVuSans-73" x="363.525391"/>
     <use xlink:href="#DejaVuSans-65" x="415.625"/>
     <use xlink:href="#DejaVuSans-73" x="477.148438"/>
    </g>
   </g>
   <g id="text_11">
    <!-- File systems -->
    <g transform="translate(469.180032 263.412771) scale(0.12 -0.12)">
     <use xlink:href="#DejaVuSans-46"/>
     <use xlink:href="#DejaVuSans-69" x="50.269531"/>
     <use xlink:href="#DejaVuSans-6c" x="78.052734"/>
     <use xlink:href="#DejaVuSans-65" x="105.835938"/>
     <use xlink:href="#DejaVuSans-20" x="167.359375"/>
     <use xlink:href="#DejaVuSans-73" x="199.146484"/>
     <use xlink:href="#DejaVuSans-79" x="251.246094"/>
     <use xlink:href="#DejaVuSans-73" x="310.425781"/>
     <use xlink:href="#DejaVuSans-74" x="362.525391"/>
     <use xlink:href="#DejaVuSans-65" x="401.734375"/>
     <use xlink:href="#DejaVuSans-6d" x="463.257812"/>
     <use xlink:href="#DejaVuSans-73" x="560.669922"/>
    </g>
   </g>
   <g id="text_12">
    <!-- Research -->
    <g transform="translate(404.481562 60.229583) scale(0.12 -0.12)">
     <defs>
      <path id="DejaVuSans-52" d="M 2841 2188 
Q 3044 2119 3236 1894 
Q 3428 1669 3622 1275 
L 4263 0 
L 3584 0 
L 2988 1197 
Q 2756 1666 2539 1819 
Q 2322 1972 1947 1972 
L 1259 1972 
L 1259 0 
L 628 0 
L 628 4666 
L 2053 4666 
Q 2853 4666 3247 4331 
Q 3641 3997 3641 3322 
Q 3641 2881 3436 2590 
Q 3231 2300 2841 2188 
z
M 1259 4147 
L 1259 2491 
L 2053 2491 
Q 2509 2491 2742 2702 
Q 2975 2913 2975 3322 
Q 2975 3731 2742 3939 
Q 2509 4147 2053 4147 
L 1259 4147 
z
" transform="scale(0.015625)"/>
      <path id="DejaVuSans-72" d="M 2631 2963 
Q 2534 3019 2420 3045 
Q 2306 3072 2169 3072 
Q 1681 3072 1420 2755 
Q 1159 2438 1159 1844 
L 1159 0 
L 581 0 
L 581 3500 
L 1159 3500 
L 1159 2956 
Q 1341 3275 1631 3429 
Q 1922 3584 2338 3584 
Q 2397 3584 2469 3576 
Q 2541 3569 2628 3553 
L 2631 2963 
z
" transform="scale(0.015625)"/>
      <path id="DejaVuSans-63" d="M 3122 3366 
L 3122 2828 
Q 2878 2963 2633 3030 
Q 2388 3097 2138 3097 
Q 1578 3097 1268 2742 
Q 959 2388 959 1747 
Q 959 1106 1268 751 
Q 1578 397 2138 397 
Q 2388 397 2633 464 
Q 2878 531 3122 666 
L 3122 134 
Q 2881 22 2623 -34 
Q 2366 -91 2075 -91 
Q 1284 -91 818 406 
Q 353 903 353 1747 
Q 353 2603 823 3093 
Q 1294 3584 2113 3584 
Q 2378 3584 2631 3529 
Q 2884 3475 3122 3366 
z
" transform="scale(0.015625)"/>
      <path id="DejaVuSans-68" d="M 3513 2113 
L 3513 0 
L 2938 0 
L 2938 2094 
Q 2938 2591 2744 2837 
Q 2550 3084 2163 3084 
Q 1697 3084 1428 2787 
Q 1159 2491 1159 1978 
L 1159 0 
L 581 0 
L 581 4863 
L 1159 4863 
L 1159 2956 
Q 1366 3272 1645 3428 
Q 1925 3584 2291 3584 
Q 2894 3584 3203 3211 
Q 3513 2838 3513 2113 
z
" transform="scale(0.015625)"/>
     </defs>
     <use xlink:href="#DejaVuSans-52"/>
     <use xlink:href="#DejaVuSans-65" x="64.982422"/>
     <use xlink:href="#DejaVuSans-73" x="126.505859"/>
     <use xlink:href="#DejaVuSans-65" x="178.605469"/>
     <use xlink:href="#DejaVuSans-61" x="240.128906"/>
     <use xlink:href="#DejaVuSans-72" x="301.408203"/>
     <use xlink:href="#DejaVuSans-63" x="340.271484"/>
     <use xlink:href="#DejaVuSans-68" x="395.251953"/>
    </g>
   </g>
  </g>
  <g id="axes_3">
   <g id="patch_8">
    <path d="M 812.129831 168.264923 
C 811.732868 177.443103 809.556786 186.457387 805.722753 194.805845 
C 801.888719 203.154304 796.469242 210.679056 789.766084 216.961114 
C 783.062926 223.243171 775.202854 228.163731 766.623528 231.448809 
C 758.044202 234.733888 748.90787 236.321359 739.723254 236.122831 
C 730.538639 235.924303 721.479435 233.94353 713.050072 230.290804 
C 704.620708 226.638078 696.980597 221.382478 690.55515 214.816642 
C 684.129703 208.250806 679.040434 200.498904 675.570721 191.992573 
C 672.101009 183.486242 670.31647 174.386349 670.31647 165.199588 
C 670.31647 156.012827 672.101009 146.912934 675.570721 138.406603 
C 679.040434 129.900272 684.129703 122.14837 690.55515 115.582534 
C 696.980597 109.016698 704.620708 103.761098 713.050072 100.108372 
C 721.479435 96.455646 730.538639 94.474873 739.723254 94.276345 
C 748.90787 94.077817 758.044202 95.665288 766.623528 98.950367 
C 775.202854 102.235445 783.062926 107.156005 789.766084 113.438062 
C 796.469242 119.72012 801.888719 127.244872 805.722753 135.593331 
C 809.556786 143.941789 811.732868 152.956073 812.129831 162.134253 
C 811.73145 149.776261 808.927734 137.613624 803.875898 126.32834 
C 798.824061 115.043057 791.620326 104.85008 782.668631 96.320964 
C 773.716936 87.791848 763.187784 81.089047 751.67158 76.588411 
C 740.155377 72.087775 727.871472 69.875026 715.508666 70.074243 
C 703.145859 70.273459 690.939627 72.880846 679.574413 77.750197 
C 668.209199 82.619549 657.901478 89.658118 649.229238 98.47123 
C 640.556999 107.284341 633.685422 117.70413 628.99982 129.146324 
C 624.314217 140.588518 621.903837 152.835176 621.903837 165.199588 
C 621.903837 177.563999 624.314217 189.810658 628.99982 201.252852 
C 633.685422 212.695046 640.556999 223.114835 649.229238 231.927946 
C 657.901478 240.741058 668.209199 247.779627 679.574413 252.648979 
C 690.939627 257.51833 703.145859 260.125717 715.508666 260.324933 
C 727.871472 260.524149 740.155377 258.311401 751.67158 253.810765 
C 763.187784 249.310129 773.716936 242.607328 782.668631 234.078212 
C 791.620326 225.549096 798.824061 215.356119 803.875898 204.070836 
C 808.927734 192.785552 811.73145 180.622915 812.129831 168.264923 
" clip-path="url(#p4e7b9acfa6)" style="fill: #ab43d8"/>
   </g>
   <g id="patch_9">
    <path d="M 812.129831 162.134253 
C 812.162759 163.1557 812.179227 164.177611 812.179227 165.199588 
C 812.179227 166.221565 812.162759 167.243476 812.129831 168.264923 
C 812.173998 167.243741 812.196089 166.221724 812.196089 165.199588 
C 812.196089 164.177452 812.173998 163.155435 812.129831 162.134253 
" clip-path="url(#p4e7b9acfa6)" style="fill: #4444f7"/>
   </g>
   <g id="patch_10">
    <path d="M 812.129831 168.264923 
C 812.162759 167.243476 812.179227 166.221565 812.179227 165.199588 
C 812.179227 164.177611 812.162759 163.1557 812.129831 162.134253 
C 811.732868 152.956073 809.556786 143.941789 805.722753 135.593331 
C 801.888719 127.244872 796.469242 119.72012 789.766084 113.438062 
C 783.062926 107.156005 775.202854 102.235445 766.623528 98.950367 
C 758.044202 95.665288 748.90787 94.077817 739.723254 94.276345 
C 730.538639 94.474873 721.479435 96.455646 713.050072 100.108372 
C 704.620708 103.761098 696.980597 109.016698 690.55515 115.582534 
C 684.129703 122.14837 679.040434 129.900272 675.570721 138.406603 
C 672.101009 146.912934 670.31647 156.012827 670.31647 165.199588 
C 670.31647 174.386349 672.101009 183.486242 675.570721 191.992573 
C 679.040434 200.498904 684.129703 208.250806 690.55515 214.816642 
C 696.980597 221.382478 704.620708 226.638078 713.050072 230.290804 
C 721.479435 233.94353 730.538639 235.924303 739.723254 236.122831 
C 748.90787 236.321359 758.044202 234.733888 766.623528 231.448809 
C 775.202854 228.163731 783.062926 223.243171 789.766084 216.961114 
C 796.469242 210.679056 801.888719 203.154304 805.722753 194.805845 
C 809.556786 186.457387 811.732868 177.443103 812.129831 168.264923 
" clip-path="url(#p4e7b9acfa6)" style="fill: #8d43f6; stroke: #8d43f6; stroke-linejoin: miter"/>
   </g>
   <g id="text_13">
    <!-- 44.4% -->
    <g transform="translate(630.22656 167.958963) scale(0.1 -0.1)">
     <use xlink:href="#DejaVuSans-34"/>
     <use xlink:href="#DejaVuSans-34" x="63.623047"/>
     <use xlink:href="#DejaVuSans-2e" x="127.246094"/>
     <use xlink:href="#DejaVuSans-34" x="159.033203"/>
     <use xlink:href="#DejaVuSans-25" x="222.65625"/>
    </g>
   </g>
   <g id="text_14">
    <!-- 0.0% -->
    <g transform="translate(799.485314 167.958963) scale(0.1 -0.1)">
     <defs>
      <path id="DejaVuSans-30" d="M 2034 4250 
Q 1547 4250 1301 3770 
Q 1056 3291 1056 2328 
Q 1056 1369 1301 889 
Q 1547 409 2034 409 
Q 2525 409 2770 889 
Q 3016 1369 3016 2328 
Q 3016 3291 2770 3770 
Q 2525 4250 2034 4250 
z
M 2034 4750 
Q 2819 4750 3233 4129 
Q 3647 3509 3647 2328 
Q 3647 1150 3233 529 
Q 2819 -91 2034 -91 
Q 1250 -91 836 529 
Q 422 1150 422 2328 
Q 422 3509 836 4129 
Q 1250 4750 2034 4750 
z
" transform="scale(0.015625)"/>
     </defs>
     <use xlink:href="#DejaVuSans-30"/>
     <use xlink:href="#DejaVuSans-2e" x="63.623047"/>
     <use xlink:href="#DejaVuSans-30" x="95.410156"/>
     <use xlink:href="#DejaVuSans-25" x="159.033203"/>
    </g>
   </g>
   <g id="text_15">
    <!-- 55.6% -->
    <g transform="translate(725.364255 167.958963) scale(0.1 -0.1)">
     <defs>
      <path id="DejaVuSans-35" d="M 691 4666 
L 3169 4666 
L 3169 4134 
L 1269 4134 
L 1269 2991 
Q 1406 3038 1543 3061 
Q 1681 3084 1819 3084 
Q 2600 3084 3056 2656 
Q 3513 2228 3513 1497 
Q 3513 744 3044 326 
Q 2575 -91 1722 -91 
Q 1428 -91 1123 -41 
Q 819 9 494 109 
L 494 744 
Q 775 591 1075 516 
Q 1375 441 1709 441 
Q 2250 441 2565 725 
Q 2881 1009 2881 1497 
Q 2881 1984 2565 2268 
Q 2250 2553 1709 2553 
Q 1456 2553 1204 2497 
Q 953 2441 691 2322 
L 691 4666 
z
" transform="scale(0.015625)"/>
      <path id="DejaVuSans-36" d="M 2113 2584 
Q 1688 2584 1439 2293 
Q 1191 2003 1191 1497 
Q 1191 994 1439 701 
Q 1688 409 2113 409 
Q 2538 409 2786 701 
Q 3034 994 3034 1497 
Q 3034 2003 2786 2293 
Q 2538 2584 2113 2584 
z
M 3366 4563 
L 3366 3988 
Q 3128 4100 2886 4159 
Q 2644 4219 2406 4219 
Q 1781 4219 1451 3797 
Q 1122 3375 1075 2522 
Q 1259 2794 1537 2939 
Q 1816 3084 2150 3084 
Q 2853 3084 3261 2657 
Q 3669 2231 3669 1497 
Q 3669 778 3244 343 
Q 2819 -91 2113 -91 
Q 1303 -91 875 529 
Q 447 1150 447 2328 
Q 447 3434 972 4092 
Q 1497 4750 2381 4750 
Q 2619 4750 2861 4703 
Q 3103 4656 3366 4563 
z
" transform="scale(0.015625)"/>
     </defs>
     <use xlink:href="#DejaVuSans-35"/>
     <use xlink:href="#DejaVuSans-35" x="63.623047"/>
     <use xlink:href="#DejaVuSans-2e" x="127.246094"/>
     <use xlink:href="#DejaVuSans-36" x="159.033203"/>
     <use xlink:href="#DejaVuSans-25" x="222.65625"/>
    </g>
   </g>
   <g id="text_16">
    <!-- Databases -->
    <g transform="translate(653.531532 277.759283) scale(0.12 -0.12)">
     <use xlink:href="#DejaVuSans-44"/>
     <use xlink:href="#DejaVuSans-61" x="77.001953"/>
     <use xlink:href="#DejaVuSans-74" x="138.28125"/>
     <use xlink:href="#DejaVuSans-61" x="177.490234"/>
     <use xlink:href="#DejaVuSans-62" x="238.769531"/>
     <use xlink:href="#DejaVuSans-61" x="302.246094"/>
     <use xlink:href="#DejaVuSans-73" x="363.525391"/>
     <use xlink:href="#DejaVuSans-65" x="415.625"/>
     <use xlink:href="#DejaVuSans-73" x="477.148438"/>
    </g>
   </g>
   <g id="text_17">
    <!-- File systems -->
    <g transform="translate(741.25628 253.561398) scale(0.12 -0.12)">
     <use xlink:href="#DejaVuSans-46"/>
     <use xlink:href="#DejaVuSans-69" x="50.269531"/>
     <use xlink:href="#DejaVuSans-6c" x="78.052734"/>
     <use xlink:href="#DejaVuSans-65" x="105.835938"/>
     <use xlink:href="#DejaVuSans-20" x="167.359375"/>
     <use xlink:href="#DejaVuSans-73" x="199.146484"/>
     <use xlink:href="#DejaVuSans-79" x="251.246094"/>
     <use xlink:href="#DejaVuSans-73" x="310.425781"/>
     <use xlink:href="#DejaVuSans-74" x="362.525391"/>
     <use xlink:href="#DejaVuSans-65" x="401.734375"/>
     <use xlink:href="#DejaVuSans-6d" x="463.257812"/>
     <use xlink:href="#DejaVuSans-73" x="560.669922"/>
    </g>
   </g>
   <g id="text_18">
    <!-- Industry -->
    <g transform="translate(692.370276 47.199176) scale(0.12 -0.12)">
     <defs>
      <path id="DejaVuSans-49" d="M 628 4666 
L 1259 4666 
L 1259 0 
L 628 0 
L 628 4666 
z
" transform="scale(0.015625)"/>
      <path id="DejaVuSans-6e" d="M 3513 2113 
L 3513 0 
L 2938 0 
L 2938 2094 
Q 2938 2591 2744 2837 
Q 2550 3084 2163 3084 
Q 1697 3084 1428 2787 
Q 1159 2491 1159 1978 
L 1159 0 
L 581 0 
L 581 3500 
L 1159 3500 
L 1159 2956 
Q 1366 3272 1645 3428 
Q 1925 3584 2291 3584 
Q 2894 3584 3203 3211 
Q 3513 2838 3513 2113 
z
" transform="scale(0.015625)"/>
      <path id="DejaVuSans-64" d="M 2906 2969 
L 2906 4863 
L 3481 4863 
L 3481 0 
L 2906 0 
L 2906 525 
Q 2725 213 2448 61 
Q 2172 -91 1784 -91 
Q 1150 -91 751 415 
Q 353 922 353 1747 
Q 353 2572 751 3078 
Q 1150 3584 1784 3584 
Q 2172 3584 2448 3432 
Q 2725 3281 2906 2969 
z
M 947 1747 
Q 947 1113 1208 752 
Q 1469 391 1925 391 
Q 2381 391 2643 752 
Q 2906 1113 2906 1747 
Q 2906 2381 2643 2742 
Q 2381 3103 1925 3103 
Q 1469 3103 1208 2742 
Q 947 2381 947 1747 
z
" transform="scale(0.015625)"/>
      <path id="DejaVuSans-75" d="M 544 1381 
L 544 3500 
L 1119 3500 
L 1119 1403 
Q 1119 906 1312 657 
Q 1506 409 1894 409 
Q 2359 409 2629 706 
Q 2900 1003 2900 1516 
L 2900 3500 
L 3475 3500 
L 3475 0 
L 2900 0 
L 2900 538 
Q 2691 219 2414 64 
Q 2138 -91 1772 -91 
Q 1169 -91 856 284 
Q 544 659 544 1381 
z
M 1991 3584 
L 1991 3584 
z
" transform="scale(0.015625)"/>
     </defs>
     <use xlink:href="#DejaVuSans-49"/>
     <use xlink:href="#DejaVuSans-6e" x="29.492188"/>
     <use xlink:href="#DejaVuSans-64" x="92.871094"/>
     <use xlink:href="#DejaVuSans-75" x="156.347656"/>
     <use xlink:href="#DejaVuSans-73" x="219.726562"/>
     <use xlink:href="#DejaVuSans-74" x="271.826172"/>
     <use xlink:href="#DejaVuSans-72" x="311.035156"/>
     <use xlink:href="#DejaVuSans-79" x="352.148438"/>
    </g>
   </g>
  </g>
  <g id="text_19">
   <!-- Residence of data lakes -->
   <g transform="translate(360.885 14.878125) scale(0.12 -0.12)">
    <defs>
     <path id="DejaVuSans-6f" d="M 1959 3097 
Q 1497 3097 1228 2736 
Q 959 2375 959 1747 
Q 959 1119 1226 758 
Q 1494 397 1959 397 
Q 2419 397 2687 759 
Q 2956 1122 2956 1747 
Q 2956 2369 2687 2733 
Q 2419 3097 1959 3097 
z
M 1959 3584 
Q 2709 3584 3137 3096 
Q 3566 2609 3566 1747 
Q 3566 888 3137 398 
Q 2709 -91 1959 -91 
Q 1206 -91 779 398 
Q 353 888 353 1747 
Q 353 2609 779 3096 
Q 1206 3584 1959 3584 
z
" transform="scale(0.015625)"/>
     <path id="DejaVuSans-66" d="M 2375 4863 
L 2375 4384 
L 1825 4384 
Q 1516 4384 1395 4259 
Q 1275 4134 1275 3809 
L 1275 3500 
L 2222 3500 
L 2222 3053 
L 1275 3053 
L 1275 0 
L 697 0 
L 697 3053 
L 147 3053 
L 147 3500 
L 697 3500 
L 697 3744 
Q 697 4328 969 4595 
Q 1241 4863 1831 4863 
L 2375 4863 
z
" transform="scale(0.015625)"/>
     <path id="DejaVuSans-6b" d="M 581 4863 
L 1159 4863 
L 1159 1991 
L 2875 3500 
L 3609 3500 
L 1753 1863 
L 3688 0 
L 2938 0 
L 1159 1709 
L 1159 0 
L 581 0 
L 581 4863 
z
" transform="scale(0.015625)"/>
    </defs>
    <use xlink:href="#DejaVuSans-52"/>
    <use xlink:href="#DejaVuSans-65" x="64.982422"/>
    <use xlink:href="#DejaVuSans-73" x="126.505859"/>
    <use xlink:href="#DejaVuSans-69" x="178.605469"/>
    <use xlink:href="#DejaVuSans-64" x="206.388672"/>
    <use xlink:href="#DejaVuSans-65" x="269.865234"/>
    <use xlink:href="#DejaVuSans-6e" x="331.388672"/>
    <use xlink:href="#DejaVuSans-63" x="394.767578"/>
    <use xlink:href="#DejaVuSans-65" x="449.748047"/>
    <use xlink:href="#DejaVuSans-20" x="511.271484"/>
    <use xlink:href="#DejaVuSans-6f" x="543.058594"/>
    <use xlink:href="#DejaVuSans-66" x="604.240234"/>
    <use xlink:href="#DejaVuSans-20" x="639.445312"/>
    <use xlink:href="#DejaVuSans-64" x="671.232422"/>
    <use xlink:href="#DejaVuSans-61" x="734.708984"/>
    <use xlink:href="#DejaVuSans-74" x="795.988281"/>
    <use xlink:href="#DejaVuSans-61" x="835.197266"/>
    <use xlink:href="#DejaVuSans-20" x="896.476562"/>
    <use xlink:href="#DejaVuSans-6c" x="928.263672"/>
    <use xlink:href="#DejaVuSans-61" x="956.046875"/>
    <use xlink:href="#DejaVuSans-6b" x="1017.326172"/>
    <use xlink:href="#DejaVuSans-65" x="1071.611328"/>
    <use xlink:href="#DejaVuSans-73" x="1133.134766"/>
   </g>
   <!--  -->
   <g transform="translate(432 28.3155) scale(0.12 -0.12)"/>
  </g>
 </g>
 <defs>
  <clipPath id="pe76daa92c9">
   <rect x="10.8" y="54.164637" width="272.300073" height="222.069901"/>
  </clipPath>
  <clipPath id="pc4e7a62b2d">
   <rect x="295.849963" y="66.229583" width="272.300073" height="197.940009"/>
  </clipPath>
  <clipPath id="p4e7b9acfa6">
   <rect x="605.04112" y="53.199176" width="224.017687" height="224.000824"/>
  </clipPath>
 </defs>
</svg>
